<svg width="335" height="431" viewBox="0 0 335 431" fill="none" xmlns="http://www.w3.org/2000/svg">
<path fill-rule="evenodd" clip-rule="evenodd" d="M334.667 431H187.958V-235.475H208.917V368.125H229.875V-235.475H250.833V368.125H271.792V-235.475H292.75V368.125H313.708V-235.475H334.667V431ZM313.708 410.042V389.083H292.75V410.042H313.708ZM271.792 389.083H250.833V410.042H271.792V389.083ZM229.875 389.083H208.917V410.042H229.875V389.083Z" fill="#0075FF"/>
<path d="M187.958 -239.667C187.958 -343.841 103.508 -428.292 -0.666626 -428.292C-103.8 -428.292 -187.601 -345.522 -189.266 -242.786L-189.292 -239.667V95.6666C-189.292 199.841 -104.841 284.292 -0.666626 284.292C102.466 284.292 186.267 201.522 187.933 98.7859L187.958 95.6666V83.0917H334.667V104.05L334.564 104.056C330.111 285.379 181.728 431 -0.666626 431C-183.061 431 -331.445 285.379 -335.897 104.056L-336 104.05V-248.05L-335.897 -248.052C-331.447 -429.377 -183.063 -575 -0.666626 -575C181.73 -575 330.114 -429.377 334.564 -248.052L334.667 -248.05V-227.092H187.958V-239.667ZM313.599 104.054L292.633 104.054C288.193 262.225 158.578 389.083 -0.666626 389.083C-159.911 389.083 -289.526 262.225 -293.966 104.054L-314.932 104.055C-310.486 273.802 -171.486 410.042 -0.666626 410.042C170.154 410.042 309.153 273.801 313.599 104.054ZM-252.029 104.052L-272.998 104.054C-268.566 250.648 -148.335 368.125 -0.666626 368.125C147.002 368.125 267.232 250.648 271.665 104.055L250.696 104.052C246.273 239.07 135.427 347.167 -0.666626 347.167C-136.76 347.167 -247.606 239.07 -252.029 104.052ZM-210.085 104.054L-231.059 104.054C-226.645 227.493 -125.184 326.208 -0.666626 326.208C123.85 326.208 225.311 227.493 229.725 104.053L208.752 104.054C204.349 215.915 112.274 305.25 -0.666626 305.25C-113.607 305.25 -205.683 215.915 -210.085 104.054ZM-294.083 -227.092H-315.042V83.0917H-294.083V-227.092ZM-252.167 -227.092H-273.125V83.0917H-252.167V-227.092ZM-210.25 -227.092H-231.208V83.0917H-210.25V-227.092ZM-0.666626 -554.042C-171.488 -554.042 -310.489 -417.799 -314.932 -248.049L-293.966 -248.05C-289.528 -406.223 -159.912 -533.083 -0.666626 -533.083C158.579 -533.083 288.195 -406.223 292.633 -248.05L313.599 -248.05C309.155 -417.8 170.155 -554.042 -0.666626 -554.042ZM-0.666626 -512.125C-148.337 -512.125 -268.568 -394.646 -272.998 -248.051L-252.03 -248.048C-247.608 -383.068 -136.761 -491.167 -0.666626 -491.167C135.428 -491.167 246.275 -383.068 250.696 -248.048L271.665 -248.049C267.235 -394.646 147.004 -512.125 -0.666626 -512.125ZM-0.666626 -470.208C-125.185 -470.208 -226.647 -371.491 -231.059 -248.049L-210.085 -248.05C-205.685 -359.913 -113.609 -449.25 -0.666626 -449.25C112.275 -449.25 204.352 -359.913 208.752 -248.05L229.726 -248.049C225.314 -371.491 123.852 -470.208 -0.666626 -470.208Z" fill="black"/>
<path opacity="0.3" fill-rule="evenodd" clip-rule="evenodd" d="M208.921 329.988L208.924 357.446C202.147 362.879 195.155 368.054 187.963 372.956L187.961 347.188C195.196 341.753 202.189 336.014 208.921 329.988ZM250.841 284.312L250.834 317.474C244.175 325.019 237.182 332.262 229.878 339.179L229.881 309.396C237.289 301.409 244.286 293.037 250.841 284.312ZM208.919 269.768L208.925 301.007C202.256 307.814 195.258 314.296 187.957 320.43L187.962 292.271C195.36 285.171 202.358 277.657 208.919 269.768ZM292.756 208.751L292.758 258.121C286.407 269.569 279.404 280.606 271.802 291.183L271.797 252.6C279.863 238.627 286.885 223.975 292.756 208.751ZM250.84 200.627L250.836 246.88C244.478 257.432 237.474 267.552 229.88 277.184L229.878 240.931C237.934 228.173 244.961 214.699 250.84 200.627ZM208.922 191.833L208.921 234.732C202.553 244.309 195.546 253.426 187.961 262.02L187.96 228.251C196.001 216.831 203.032 204.649 208.922 191.833ZM334.667 83.0917V104.05L334.564 104.056C333.628 142.159 326.337 178.686 313.71 212.616L313.708 83.0917H334.667ZM292.75 83.0917L292.749 104.054L292.632 104.054C291.636 139.56 284.332 173.487 271.801 204.756L271.792 83.0917H292.75ZM250.833 83.0917L250.832 104.05L250.696 104.052C249.624 136.778 242.3 167.921 229.88 196.328L229.875 83.0917H250.833ZM208.917 83.0917L208.915 104.05L208.752 104.054C207.583 133.748 200.237 161.855 187.962 187.125L187.958 83.0917H208.917Z" fill="white"/>
</svg>
