<?xml version="1.0" encoding="iso-8859-1"?>
<!-- Generator: Adobe Illustrator 16.0.0, SVG Export Plug-In . SVG Version: 6.00 Build 0)  -->
<!DOCTYPE svg PUBLIC "-//W3C//DTD SVG 1.1//EN" "http://www.w3.org/Graphics/SVG/1.1/DTD/svg11.dtd">
<svg version="1.1" id="Layer_1" xmlns="http://www.w3.org/2000/svg" xmlns:xlink="http://www.w3.org/1999/xlink" x="0px" y="0px"
	 width="1080px" height="1080px" viewBox="0 0 1080 1080" style="enable-background:new 0 0 1080 1080;" xml:space="preserve">
<g>
	<path d="M970.297,811.318c-14.156-10.259-33.938-7.127-44.219,7.045c-19.5,26.862-41.938,51.83-66.594,74.16
		c-13,11.698-14,31.723-2.281,44.659c6.25,6.92,14.844,10.466,23.5,10.466c7.531,0,15.156-2.722,21.188-8.199
		c27.938-25.215,53.313-53.478,75.438-83.924C987.578,841.354,984.422,821.578,970.297,811.318z"/>
	<path d="M778.953,951.232c-28.75,16.686-59.344,30.403-90.906,40.705c-16.625,5.479-25.688,23.276-20.25,39.922
		c4.375,13.348,16.75,21.836,30.063,21.836c3.25,0,6.594-0.537,9.844-1.607c35.75-11.66,70.406-27.15,103.063-46.102
		c15.095-8.775,20.25-28.183,11.47-43.22C813.453,947.648,794.078,942.457,778.953,951.232z"/>
	<path d="M590.641,1012.701c-32.875,3.502-66.813,3.543-99.688,0.164c-17.406-1.771-32.938,10.877-34.688,28.305
		c-1.813,17.346,10.875,32.877,28.25,34.648c18.313,1.854,36.97,2.844,55.5,2.844c19.095,0,38.375-1.031,57.25-3.049
		c17.406-1.771,30-17.387,28.188-34.732C623.609,1023.455,608.047,1010.848,590.641,1012.701z"/>
	<path d="M1044.016,612.779c-17.125-3.584-33.905,7.375-37.469,24.473c-6.844,32.506-17.188,64.396-30.656,94.758
		c-7.094,15.986,0.095,34.689,16.063,41.777c4.188,1.854,8.531,2.76,12.844,2.76c12.094,0,23.688-7.045,28.906-18.828
		c15.313-34.442,27-70.574,34.75-107.447C1072.047,633.172,1061.109,616.404,1044.016,612.779z"/>
	<path d="M975.453,344.324c5.281,11.742,16.813,18.705,28.906,18.705c4.313,0,8.688-0.906,12.905-2.763
		c15.938-7.127,23.095-25.832,15.97-41.815c-15.345-34.277-34.375-67.154-56.595-97.643c-10.313-14.09-30.094-17.221-44.219-6.881
		c-14.125,10.26-17.219,30.076-6.938,44.207C945.078,285.039,961.922,314.002,975.453,344.324z"/>
	<path d="M393.453,992.391c-31.594-10.178-62.25-23.729-91.094-40.375c-15.125-8.733-34.469-3.545-43.219,11.617
		c-8.688,15.162-3.5,34.484,11.656,43.219c32.656,18.828,67.406,34.236,103.188,45.771c3.25,1.072,6.531,1.566,9.75,1.566
		c13.344,0,25.781-8.57,30.094-21.918C419.203,1015.627,410.078,997.787,393.453,992.391z"/>
	<path d="M1068.172,425.816c-3.625-17.058-20.406-28.017-37.5-24.351c-17.125,3.627-28,20.437-24.375,37.533
		c6.875,32.383,10.406,65.672,10.438,99.125c0,17.469,14.155,31.602,31.625,31.602c0.03,0,0.03,0,0.063,0
		c17.469-0.041,31.625-14.215,31.594-31.643C1079.984,500.305,1075.984,462.484,1068.172,425.816z"/>
	<path d="M382.672,86.746c3.219,0,6.531-0.494,9.781-1.566c31.531-10.217,64.313-17.221,97.406-20.682
		c17.405-1.771,30.03-17.387,28.219-34.73c-1.813-17.346-17.406-30.035-34.75-28.182C445.797,5.5,408.641,13.369,372.891,24.988
		c-16.625,5.438-25.719,23.277-20.313,39.881C356.922,78.258,369.328,86.746,382.672,86.746z"/>
	<path d="M778.047,125.473c28.781,16.645,55.906,36.379,80.688,58.668c6.03,5.439,13.625,8.158,21.155,8.158
		c8.656,0,17.281-3.584,23.531-10.547c11.656-13.02,10.625-33.002-2.375-44.66c-28.031-25.215-58.75-47.545-91.313-66.373
		c-15.125-8.734-34.47-3.584-43.22,11.578C757.766,97.457,762.953,116.779,778.047,125.473z"/>
	<path d="M199.734,192.545c7.563,0,15.156-2.637,21.188-8.115c24.75-22.289,51.813-42.023,80.563-58.668
		c15.125-8.693,20.281-28.098,11.531-43.219c-8.75-15.16-28.125-20.27-43.219-11.535c-32.563,18.828-63.25,41.199-91.219,66.414
		c-13,11.699-14.063,31.723-2.344,44.658C182.484,189.043,191.109,192.545,199.734,192.545z"/>
	<path d="M221.672,893.512c-24.75-22.207-47.25-47.092-66.844-73.912c-10.344-14.131-30.094-17.221-44.219-6.922
		c-14.094,10.342-17.219,30.158-6.875,44.248c22.188,30.365,47.625,58.504,75.688,83.676c6.031,5.48,13.594,8.117,21.094,8.117
		c8.688,0,17.313-3.543,23.594-10.506C235.734,925.193,234.672,905.213,221.672,893.512z"/>
	<path d="M589.609,64.498c33.125,3.379,65.905,10.301,97.469,20.518c3.219,1.07,6.531,1.564,9.75,1.564
		c13.344,0,25.75-8.568,30.094-21.918c5.375-16.604-3.719-34.441-20.344-39.84C670.828,13.246,633.64,5.377,596.109,1.504
		c-17.406-1.771-32.938,10.836-34.75,28.223C559.578,47.111,572.203,62.686,589.609,64.498z"/>
	<path d="M31.703,571.414c17.469-0.041,31.625-14.254,31.563-31.723v-1.07c0-33.373,3.5-66.744,10.313-99.127
		c3.625-17.058-7.313-33.865-24.406-37.49c-17.094-3.627-33.875,7.332-37.5,24.389C3.922,463.061-0.016,500.84-0.016,538.621v1.234
		c0.063,17.469,14.188,31.559,31.656,31.559H31.703z"/>
	<path d="M104.766,733.451c-13.594-30.322-24-62.17-30.938-94.635c-3.688-17.099-20.469-28.017-37.594-24.349
		C19.172,618.135,8.266,634.945,11.922,652c7.875,36.834,19.688,72.924,35.094,107.367c5.281,11.699,16.813,18.703,28.906,18.703
		c4.313,0,8.688-0.906,12.906-2.802C104.797,768.102,111.922,749.396,104.766,733.451z"/>
	<path d="M62.547,360.805c4.188,1.854,8.563,2.72,12.875,2.72c12.125,0,23.688-7.005,28.938-18.746
		c13.469-30.322,30.281-59.369,49.875-86.271c10.25-14.131,7.156-33.906-6.969-44.207c-14.125-10.299-33.938-7.168-44.219,7.004
		c-22.188,30.488-41.219,63.365-56.5,97.725C39.422,334.973,46.578,353.676,62.547,360.805z"/>
	<path d="M208.609,538.621c0,182.76,148.656,331.406,331.406,331.406c182.688,0,331.375-148.646,331.375-331.406
		c0-182.721-148.688-331.367-331.375-331.367C357.266,207.254,208.609,355.9,208.609,538.621z M540.016,259.988
		c153.625,0,278.656,125.042,278.656,278.633c0,153.672-125.031,278.672-278.656,278.672c-153.656,0-278.688-125-278.688-278.672
		C261.328,385.029,386.359,259.988,540.016,259.988z"/>
	<path d="M540.016,666.668c70.595,0,128.031-57.432,128.031-128.047c0-70.533-57.438-128.049-128.031-128.049
		c-70.625,0-128.063,57.516-128.063,128.049C411.953,609.236,469.391,666.668,540.016,666.668z M540.016,463.309
		c41.5,0,75.281,33.783,75.281,75.313c0,41.527-33.781,75.313-75.281,75.313c-41.53,0-75.313-33.784-75.313-75.313
		C464.703,497.092,498.484,463.309,540.016,463.309z"/>
</g>
</svg>
