<?xml version="1.0" encoding="iso-8859-1"?>
<!-- Generator: Adobe Illustrator 16.0.0, SVG Export Plug-In . SVG Version: 6.00 Build 0)  -->
<!DOCTYPE svg PUBLIC "-//W3C//DTD SVG 1.1//EN" "http://www.w3.org/Graphics/SVG/1.1/DTD/svg11.dtd">
<svg version="1.1" id="Layer_1" xmlns="http://www.w3.org/2000/svg" xmlns:xlink="http://www.w3.org/1999/xlink" x="0px" y="0px"
	 width="1080px" height="1080px" viewBox="0 0 1080 1080" style="enable-background:new 0 0 1080 1080;" xml:space="preserve">
<g>
	<path d="M440.395,390.12l-14.469,84.416c-1.719,9.888,2.344,19.94,10.469,25.79c4.594,3.379,10.03,5.027,15.5,5.027
		c4.188,0,8.405-0.99,12.28-3.009l75.812-39.838l75.842,39.838c3.875,2.019,8.156,3.05,12.343,3.009
		c14.531,0,26.344-11.783,26.344-26.368c0-2.06-0.25-4.037-0.719-6.015l-14.219-82.851l61.342-59.778
		c7.219-7.003,9.781-17.468,6.688-27.026c-3.095-9.558-11.375-16.519-21.313-17.962l-84.748-12.277l-37.905-76.875
		c-4.438-8.982-13.624-14.667-23.654-14.667l0,0c-10.031,0-19.188,5.686-23.656,14.667l-37.905,76.834l-84.779,12.318
		c-9.906,1.443-18.156,8.404-21.281,17.962c-3.094,9.559-0.5,20.023,6.688,27.026L440.395,390.12z M499.735,323.256
		c8.563-1.236,16-6.674,19.843-14.419l20.406-41.364l20.404,41.364c3.845,7.746,11.25,13.184,19.845,14.419l45.624,6.591l-33,32.217
		c-6.219,6.015-9.063,14.75-7.594,23.318l7.78,45.399l-40.779-21.423c-7.688-4.037-16.875-4.037-24.53,0l-40.844,21.423
		l7.813-45.399c1.469-8.569-1.375-17.304-7.594-23.318l-32.999-32.217L499.735,323.256z"/>
	<path d="M980.564,135.557h-70.028V99.468c0-54.877-52.217-99.452-116.372-99.452h-508.36c-64.154,0-116.372,44.575-116.372,99.452
		v36.089H99.403C44.592,135.557,0,180.215,0,235.009c0,135.625,56.436,262.929,158.964,358.589
		c73.81,68.968,165.214,115.397,264.648,135.789v83.963h-53.062c-64.186,0-116.403,52.238-116.403,116.427v118.566
		c0,17.468,14.187,31.643,31.655,31.643h508.36c17.5,0,31.625-14.175,31.625-31.643V929.775
		c0-64.188-52.188-116.427-116.341-116.427h-53.092v-83.963c99.466-20.392,190.838-66.821,264.68-135.789
		C1023.533,497.938,1080,370.634,1080,235.009C1080,180.215,1035.376,135.557,980.564,135.557z M232.712,99.468
		c0-19.281,24.812-36.173,53.092-36.173h508.36c28.281,0,53.093,16.892,53.093,36.173v66.41c0,0.33,0,0.66,0,1.031
		c0,0.123,0,0.205,0,0.287c0,183.828-31.374,320.235-93.247,405.555c-50.562,69.709-122.591,105.056-214.024,105.056
		c-91.467,0-163.434-35.347-214.025-105.056c-61.874-85.32-93.248-221.728-93.248-405.555V99.468L232.712,99.468z M63.279,235.009
		c0-19.939,16.218-36.171,36.124-36.171h70.373c3.469,173.444,35.78,307.255,96.153,398.303
		C143.434,516.887,63.279,384.477,63.279,235.009z M762.509,929.775v86.928H317.428v-86.928c0-29.333,23.843-53.146,53.124-53.146
		h84.716h169.434h84.747C738.697,876.629,762.509,900.442,762.509,929.775z M593.076,813.35H486.892v-74.651
		c17.531,1.565,35.249,2.391,53.093,2.391s35.562-0.824,53.092-2.391V813.35z M814.039,597.141
		c60.404-91.048,92.685-224.816,96.153-398.303h70.372c19.905,0,36.155,16.232,36.155,36.171
		C1016.721,384.477,936.535,516.887,814.039,597.141z"/>
</g>
</svg>
