<?xml version="1.0" encoding="iso-8859-1"?>
<!-- Generator: Adobe Illustrator 16.0.0, SVG Export Plug-In . SVG Version: 6.00 Build 0)  -->
<!DOCTYPE svg PUBLIC "-//W3C//DTD SVG 1.1//EN" "http://www.w3.org/Graphics/SVG/1.1/DTD/svg11.dtd">
<svg version="1.1" id="Layer_1" xmlns="http://www.w3.org/2000/svg" xmlns:xlink="http://www.w3.org/1999/xlink" x="0px" y="0px"
	 width="1080px" height="1080px" viewBox="0 0 1080 1080" style="enable-background:new 0 0 1080 1080;" xml:space="preserve">
<g>
	<path d="M963.641,0H116.359C52.203,0-0.016,52.199-0.016,116.346v847.307c0,64.188,52.219,116.348,116.375,116.348H963.64
		c64.156,0,116.375-52.158,116.375-116.348V116.346C1080.016,52.199,1027.797,0,963.641,0z M63.266,363.049h111.469v489.529H63.266
		V363.049z M1016.734,852.578H905.266V363.049h111.47L1016.734,852.578L1016.734,852.578z M1016.734,310.313H878.891
		c-14.563,0-26.344,11.783-26.344,26.367v542.269c0,14.584,11.781,26.367,26.344,26.367h137.845v58.338
		c0,29.252-23.813,53.063-53.095,53.063H116.359c-29.281,0-53.094-23.813-53.094-53.063v-58.338h137.813
		c14.563,0,26.375-11.783,26.375-26.367V336.68c0-14.584-11.813-26.367-26.375-26.367H63.266V116.346
		c0-29.25,23.813-53.064,53.094-53.064h847.281c29.281,0,53.095,23.814,53.095,53.064L1016.734,310.313L1016.734,310.313z"/>
	<path d="M743.328,310.313H336.641c-14.563,0-26.344,11.783-26.344,26.367v542.269c0,14.584,11.781,26.367,26.344,26.367h406.688
		c14.563,0,26.406-11.783,26.406-26.367V336.68C769.734,322.096,757.891,310.313,743.328,310.313z M716.984,852.578H363.016V363.049
		h353.969L716.984,852.578L716.984,852.578z"/>
	<path d="M404.422,227.502h271.125c14.563,0,26.375-11.865,26.375-26.408c0-14.543-11.813-26.326-26.375-26.326H404.422
		c-14.563,0-26.375,11.783-26.375,26.326C378.047,215.637,389.859,227.502,404.422,227.502z"/>
</g>
</svg>
