<?xml version="1.0" encoding="iso-8859-1"?>
<!-- Generator: Adobe Illustrator 16.0.0, SVG Export Plug-In . SVG Version: 6.00 Build 0)  -->
<!DOCTYPE svg PUBLIC "-//W3C//DTD SVG 1.1//EN" "http://www.w3.org/Graphics/SVG/1.1/DTD/svg11.dtd">
<svg version="1.1" id="Layer_1" xmlns="http://www.w3.org/2000/svg" xmlns:xlink="http://www.w3.org/1999/xlink" x="0px" y="0px"
	 width="1080px" height="1080px" viewBox="0 0 1080 1080" style="enable-background:new 0 0 1080 1080;" xml:space="preserve">
<path d="M1069.633,1032.367L797.914,760.703c74.5-83.469,115.25-190.008,115.25-302.766c0-121.578-47.344-235.945-133.313-321.97
	c-86-85.945-200.375-133.32-321.938-133.32c-121.625,0-235.938,47.375-321.938,133.32c-86,86.023-133.344,200.392-133.344,321.97
	c0,121.569,47.344,235.938,133.344,321.922c86,85.983,200.313,133.358,321.938,133.358c112.75,0,219.25-40.789,302.719-115.272
	l271.72,271.75c5.155,5.102,11.875,7.656,18.625,7.656c6.78,0,13.5-2.556,18.655-7.656
	C1079.945,1059.391,1079.945,1042.664,1069.633,1032.367z M457.914,849.938c-216.156,0-392-175.836-392-392
	c0-216.171,175.844-392.007,392-392.007c216.125,0,392,175.836,392,392.007C849.914,674.102,674.039,849.938,457.914,849.938z"/>
</svg>
