<?xml version="1.0" encoding="iso-8859-1"?>
<!-- Generator: Adobe Illustrator 16.0.0, SVG Export Plug-In . SVG Version: 6.00 Build 0)  -->
<!DOCTYPE svg PUBLIC "-//W3C//DTD SVG 1.1//EN" "http://www.w3.org/Graphics/SVG/1.1/DTD/svg11.dtd">
<svg version="1.1" id="Layer_1" xmlns="http://www.w3.org/2000/svg" xmlns:xlink="http://www.w3.org/1999/xlink" x="0px" y="0px"
	 width="1080px" height="1080px" viewBox="0 0 1080 1080" style="enable-background:new 0 0 1080 1080;" xml:space="preserve">
<g>
	<path d="M1048.344,406.707h-90.688c-7.438-23.32-16.844-45.938-28.094-67.734l64.155-64.188c12.345-12.32,12.345-32.383,0-44.742
		L849.938,86.262c-12.375-12.359-32.375-12.359-44.75,0l-64.155,64.188c-21.781-11.289-44.438-20.68-67.75-28.094V31.629
		c0-17.461-14.125-31.641-31.656-31.641H438.313c-17.469,0-31.625,14.18-31.625,31.641v90.727
		c-23.28,7.414-45.938,16.805-67.75,28.094l-64.156-64.188c-5.938-5.93-14-9.227-22.375-9.227c-8.406,0-16.438,3.297-22.375,9.227
		L86.219,230.043c-12.344,12.359-12.344,32.422,0,44.742l64.188,64.188c-11.281,21.797-20.656,44.414-28.094,67.734H31.625
		C14.125,406.707,0,420.879,0,438.348V641.7c0,17.469,14.125,31.602,31.625,31.602h90.688c7.438,23.32,16.844,45.938,28.094,67.773
		l-64.188,64.141c-12.344,12.32-12.344,32.383,0,44.742L230.032,993.7c12.375,12.358,32.375,12.358,44.75,0l64.156-64.103
		c21.781,11.25,44.406,20.642,67.719,28.095v90.68c0,17.469,14.155,31.641,31.625,31.641h203.344
		c17.5,0,31.656-14.172,31.656-31.641v-90.68c23.313-7.453,45.969-16.845,67.75-28.095l64.125,64.103
		c12.344,12.358,32.405,12.358,44.75,0L993.72,849.958c12.345-12.359,12.345-32.422,0-44.742l-64.155-64.141
		c11.25-21.836,20.655-44.453,28.094-67.773h90.688c17.469,0,31.656-14.133,31.656-31.602V438.348
		C1080,420.879,1065.813,406.707,1048.344,406.707z M1016.719,610.02h-82.875c-14.406,0-27.031,9.767-30.625,23.773
		c-8.719,33.945-22.281,66.531-40.219,96.898c-8.125,13.68-4.781,31.313,7.781,41.069l55.813,55.867l-99.063,99l-55.781-55.82
		c-9.781-12.569-27.375-15.944-41.094-7.788c-30.344,17.961-62.938,31.477-96.906,40.211c-13.969,3.625-23.75,16.188-23.75,30.647
		v82.853H469.938v-82.853c0-14.461-9.75-27.022-23.75-30.647c-33.938-8.734-66.53-22.289-96.905-40.211
		c-13.656-8.117-31.188-4.781-41,7.663c-0.063,0.078-0.094,0.125-0.125,0.164l-55.75,55.781l-99.031-99l55.719-55.742
		c0-0.039,0.031-0.078,0.063-0.078c12.594-9.805,15.969-27.397,7.844-41.116c-17.969-30.32-31.5-62.953-40.281-96.898
		c-3.563-14.008-16.156-23.773-30.594-23.773H63.281V469.988h82.844c14.438,0,27.031-9.806,30.594-23.773
		c8.781-33.906,22.313-66.539,40.281-96.897c8.156-13.806,4.719-31.517-7.969-41.242l-55.656-55.617l99.031-99.039l55.719,55.695
		c9.781,12.609,27.406,16.031,41.156,7.914c30.375-17.961,62.969-31.516,96.938-40.297c13.969-3.539,23.75-16.148,23.75-30.609
		V63.27H610v82.852c0,14.461,9.781,27.07,23.75,30.609c33.969,8.781,66.563,22.336,96.906,40.297
		c13.719,8.07,31.281,4.734,41.094-7.828l0,0l55.813-55.781l99.031,99.039l-55.875,55.867c-12.5,9.766-15.813,27.352-7.719,41.031
		c17.938,30.319,31.469,62.952,40.219,96.897c3.594,13.93,16.219,23.734,30.625,23.734h82.875V610.02z"/>
	<path d="M539.969,301.816c-131.313,0-238.156,106.867-238.156,238.204c0,131.344,106.844,238.172,238.156,238.172
		c131.344,0,238.188-106.828,238.188-238.172C778.156,408.684,671.313,301.816,539.969,301.816z M539.969,725.457
		c-102.25,0-185.438-83.18-185.438-185.438c0-102.25,83.188-185.469,185.438-185.469s185.469,83.22,185.469,185.47
		C725.438,642.277,642.219,725.457,539.969,725.457z"/>
</g>
</svg>
