<?xml version="1.0" encoding="iso-8859-1"?>
<!-- Generator: Adobe Illustrator 16.0.0, SVG Export Plug-In . SVG Version: 6.00 Build 0)  -->
<!DOCTYPE svg PUBLIC "-//W3C//DTD SVG 1.1//EN" "http://www.w3.org/Graphics/SVG/1.1/DTD/svg11.dtd">
<svg version="1.1" id="Layer_1" xmlns="http://www.w3.org/2000/svg" xmlns:xlink="http://www.w3.org/1999/xlink" x="0px" y="0px"
	 width="1080px" height="1080px" viewBox="0 0 1080 1080" style="enable-background:new 0 0 1080 1080;" xml:space="preserve">
<g>
	<path d="M861.922,101.688H741.109v-70.04c0-17.508-14.188-31.641-31.656-31.641H370.547c-17.469,0-31.656,14.133-31.656,31.641
		v70.039H218.047c-64.188,0-116.375,52.242-116.375,116.391v745.57c0,64.188,52.188,116.344,116.375,116.344h643.875
		c64.188,0,116.406-52.156,116.406-116.344v-745.57C978.328,153.93,926.109,101.688,861.922,101.688z M402.172,63.289h275.656
		v70.039h-0.031c0,0,0.031,0,0.031,0.086v69.953H402.172V63.289z M915.047,963.648c0,29.289-23.813,53.063-53.125,53.063H218.047
		c-29.313,0-53.094-23.773-53.094-53.063v-745.57c0-29.297,23.781-53.109,53.094-53.109h120.844v70.039
		c0,17.469,14.188,31.641,31.656,31.641h338.906c17.469,0,31.656-14.172,31.656-31.641v-70.039h120.813
		c29.313,0,53.125,23.813,53.125,53.109V963.648z"/>
	<path d="M539.984,818.625H336.641c-14.563,0-26.375,11.867-26.375,26.367c0,14.586,11.813,26.414,26.375,26.414h203.344
		c14.563,0,26.375-11.828,26.375-26.414C566.359,830.492,554.547,818.625,539.984,818.625z"/>
	<path d="M743.328,615.313H336.641c-14.563,0-26.375,11.82-26.375,26.367c0,14.539,11.813,26.367,26.375,26.367h406.688
		c14.563,0,26.375-11.828,26.375-26.367C769.703,627.133,757.891,615.313,743.328,615.313z"/>
	<path d="M743.328,412H336.641c-14.563,0-26.375,11.742-26.375,26.367c0,14.578,11.813,26.367,26.375,26.367h406.688
		c14.563,0,26.375-11.789,26.375-26.367C769.703,423.742,757.891,412,743.328,412z"/>
</g>
</svg>
