<?xml version="1.0" encoding="iso-8859-1"?>
<!-- Generator: Adobe Illustrator 16.0.0, SVG Export Plug-In . SVG Version: 6.00 Build 0)  -->
<!DOCTYPE svg PUBLIC "-//W3C//DTD SVG 1.1//EN" "http://www.w3.org/Graphics/SVG/1.1/DTD/svg11.dtd">
<svg version="1.1" id="Layer_1" xmlns="http://www.w3.org/2000/svg" xmlns:xlink="http://www.w3.org/1999/xlink" x="0px" y="0px"
	 width="1080px" height="1080px" viewBox="0 0 1080 1080" style="enable-background:new 0 0 1080 1080;" xml:space="preserve">
<path d="M963.625,0.008H116.344C52.219,0.008,0,52.211,0,116.352v847.297c0,64.141,52.219,116.344,116.344,116.344h847.281
	c64.188,0,116.375-52.203,116.375-116.344V116.352C1080,52.211,1027.813,0.008,963.625,0.008z M344.188,1016.711H116.344
	c-29.25,0-53.063-23.813-53.063-53.063V803.586h280.906L344.188,1016.711L344.188,1016.711z M344.188,750.852H63.281V532.461
	h280.906L344.188,750.852L344.188,750.852z M344.188,479.727H63.281V261.336h280.906L344.188,479.727L344.188,479.727z
	 M683.094,1016.711H396.938V803.586h286.156V1016.711z M683.094,750.852H396.938V532.461h286.156V750.852z M683.094,479.727H396.938
	V261.336h286.156V479.727z M1016.719,963.648c0,29.25-23.813,53.063-53.094,53.063H735.844V803.586h280.875V963.648z
	 M1016.719,750.852H735.844V532.461h280.875V750.852z M1016.719,479.727H735.844V261.336h280.875V479.727z M1016.719,208.602H63.281
	v-92.25c0-29.25,23.813-53.063,53.063-53.063h847.281c29.281,0,53.094,23.813,53.094,53.063V208.602z"/>
</svg>
