<?xml version="1.0" encoding="iso-8859-1"?>
<!-- Generator: Adobe Illustrator 16.0.0, SVG Export Plug-In . SVG Version: 6.00 Build 0)  -->
<!DOCTYPE svg PUBLIC "-//W3C//DTD SVG 1.1//EN" "http://www.w3.org/Graphics/SVG/1.1/DTD/svg11.dtd">
<svg version="1.1" id="Layer_1" xmlns="http://www.w3.org/2000/svg" xmlns:xlink="http://www.w3.org/1999/xlink" x="0px" y="0px"
	 width="1080px" height="1080px" viewBox="0 0 1080 1080" style="enable-background:new 0 0 1080 1080;" xml:space="preserve">
<g>
	<path d="M540.008,571.641c157.594,0,285.813-128.25,285.813-285.797c0-157.625-128.22-285.836-285.813-285.836
		c-157.625,0-285.813,128.211-285.813,285.836C254.195,443.391,382.383,571.641,540.008,571.641z M540.008,63.289
		c122.688,0,222.531,99.828,222.531,222.555c0,122.648-99.844,222.517-222.531,222.517c-122.75,0-222.531-99.867-222.531-222.517
		C317.477,163.117,417.258,63.289,540.008,63.289z"/>
	<path d="M928.758,959.359l-37.469-206.078c-11.125-61.344-68.688-109.375-131-109.375H319.695
		c-62.313,0-119.844,48.031-131,109.375l-37.469,206.078c-5.656,31.063,2.031,61.961,21.031,84.789
		c19,22.78,48.031,35.844,79.688,35.844H828.07c31.594,0,60.655-13.063,79.655-35.844
		C926.758,1021.32,934.445,990.422,928.758,959.359z M679.508,707.18c-14.438,63.734-71.5,111.445-139.5,111.445
		c-68.031,0-125.063-47.711-139.531-111.445H679.508z M859.164,1003.609c-7.063,8.444-18.094,13.102-31.094,13.102H251.945
		c-13,0-24.063-4.656-31.125-13.102c-7.031-8.492-9.656-20.188-7.313-32.961l37.469-206.078
		c5.531-30.523,37.656-57.392,68.719-57.392h27.063c15.156,92.992,96.031,164.181,193.25,164.181
		c97.188,0,178.063-71.188,193.25-164.181h27.031c31.063,0,63.188,26.867,68.75,57.392l37.469,206.078
		C868.82,983.422,866.227,995.117,859.164,1003.609z"/>
</g>
</svg>
